<svg width="205" height="30" viewBox="0 0 205 30" fill="none" xmlns="http://www.w3.org/2000/svg">
<path d="M6.82216 15.0437L3.41109 18.4548L0 15.0437L3.41109 11.6326L6.82216 15.0437ZM15.0437 6.82215L20.8163 12.5948L24.2274 9.18368L18.4548 3.41107L15.0437 0L11.6327 3.41107L5.86006 9.18368L9.27114 12.5948L15.0437 6.82215ZM26.5889 11.6326L23.1778 15.0437L26.5889 18.4548L30 15.0437L26.5889 11.6326ZM15.0437 23.1779L9.27114 17.4052L5.86006 20.8163L11.6327 26.5889L15.0437 30L18.4548 26.5889L24.2274 20.8163L20.8163 17.4052L15.0437 23.1779ZM15.0437 18.3674L18.4548 14.9563L15.0437 11.5452L11.6327 14.9563L15.0437 18.3674ZM50.6414 18.7172C50.6414 16.4431 49.5044 15.3936 47.5802 14.6064C48.7172 13.9942 49.7668 12.9446 49.7668 11.1079V11.0204C49.7668 8.48397 47.6676 6.82215 44.344 6.82215H36.7347V23.1779H44.519C48.1924 23.1779 50.6414 21.691 50.6414 18.7172ZM46.1808 11.7201C46.1808 12.9446 45.1312 13.4694 43.5569 13.4694H40.2333V9.97084H43.8192C45.3061 9.97084 46.1808 10.5831 46.1808 11.7201ZM47.0554 18.2799C47.0554 19.5044 46.0933 20.0292 44.519 20.0292H40.2333V16.4431H44.4315C46.2682 16.4431 47.0554 17.1429 47.0554 18.2799ZM58.2507 23.1779V6.82215H54.6647V23.1779H58.2507ZM77.5802 23.1779V6.82215H73.9942V16.8805L66.2974 6.82215H62.9738V23.1779H66.5598V12.7697L74.519 23.1779H77.5802ZM97.5219 23.1779L90.5248 6.64724H87.2012L80.2041 23.1779H83.8776L85.3644 19.5044H92.2741L93.7609 23.1779H97.5219ZM90.9621 16.3557H86.589L88.7755 11.0204L90.9621 16.3557ZM114.752 23.1779V6.82215H111.166V16.8805L103.469 6.82215H100.146V23.1779H103.732V12.7697L111.691 23.1779H114.752ZM133.294 20.5539L131.02 18.2799C129.708 19.4169 128.571 20.2041 126.735 20.2041C123.936 20.2041 122.012 17.8426 122.012 15.0437V14.9563C122.012 12.1574 124.023 9.88338 126.735 9.88338C128.397 9.88338 129.621 10.5831 130.933 11.7201L133.207 9.09621C131.72 7.60933 129.796 6.55977 126.735 6.55977C121.662 6.55977 118.163 10.4082 118.163 15.0437V15.1312C118.163 19.8542 121.749 23.5277 126.56 23.5277C129.796 23.4402 131.633 22.3907 133.294 20.5539ZM148.688 23.1779V19.9417H139.767V16.5306H147.464V13.2945H139.767V9.97084H148.513V6.73471H136.181V23.0904H148.688V23.1779Z" fill="#E7B41E"/>
<path d="M186.366 16.0095C185.091 13.0989 183.808 10.1926 182.542 7.27772C182.449 7.06454 182.404 7.00627 182.404 7.00627C182.404 7.00627 180.774 7.03043 180.1 7.00201C179.95 6.9957 179.745 7.00627 179.745 7.00627C179.745 7.00627 179.641 7.24779 179.59 7.36726C178.986 8.77282 178.376 10.1755 177.763 11.5782C177.074 13.1543 176.376 14.7262 175.689 16.3009C174.905 18.0916 174.127 19.8837 173.348 21.6758C173.092 22.2642 172.838 22.8526 172.566 23.4807C173.524 23.4807 175.498 23.4694 175.498 23.4694L175.6 23.2249C175.6 23.2249 176.571 20.978 177.036 19.8453C177.137 19.6009 177.258 19.5156 177.526 19.517C179.834 19.5284 182.142 19.5369 184.449 19.5113C184.845 19.5071 185.01 19.6591 185.142 19.9889C185.576 21.0704 186.482 23.2178 186.482 23.2178L186.603 23.4694C186.603 23.4694 188.643 23.4807 189.611 23.4807C189.569 23.3656 189.554 23.3102 189.531 23.2576C188.475 20.8416 187.423 18.4241 186.366 16.0095ZM178.237 16.9731C179.169 14.7987 180.089 12.6555 181.044 10.4271C182.004 12.6456 182.931 14.7887 183.876 16.9731H178.237ZM171.64 9.36545C170.505 7.87604 168.912 7.23509 167.116 7.17256C164.811 7.09155 165.789 7.14271 163.481 7.13844C163.425 7.13844 160.077 7.14982 160 7.15834V23.4551H162.855V18.2237C163.279 18.2237 163.658 18.2351 164.036 18.2223C165.263 18.1783 166.506 18.2323 167.714 18.0532C170.517 17.6382 172.587 15.7523 172.633 12.7621C172.651 11.5257 172.401 10.3674 171.64 9.36545ZM168.858 14.7404C168.301 15.2634 167.595 15.5462 166.839 15.5832C165.599 15.6429 162.834 15.6514 162.834 15.6514V15.3984L162.845 9.7037C162.845 9.7037 164.453 9.71038 165.234 9.70322C166.437 9.70322 166.831 9.72484 167.62 9.92398C168.625 10.1784 169.361 10.7696 169.616 11.8113C169.883 12.9099 169.715 13.936 168.858 14.7404ZM200.765 7.13134L200.595 7.43121C200.595 7.43121 198.422 10.8378 197.333 12.539C196.951 13.1373 196.566 13.7342 196.155 14.3737C195.891 13.9559 195.656 13.5892 195.425 13.2211C194.188 11.267 191.707 7.36441 191.707 7.36441L191.563 7.14697L188.553 7.13844H188.2L188.34 7.36157L194.475 16.7201L194.68 17.0421L194.688 23.4637H197.573L197.587 16.9707C197.587 16.9707 198.344 15.7992 198.376 15.7509C200.21 12.9781 203.872 7.43121 203.872 7.43121L204.071 7.13703L200.765 7.13134Z" fill="black"/>
</svg>
